<svg id="logo-black" xmlns="http://www.w3.org/2000/svg" width="251.798" height="77.922" viewBox="0 0 251.798 77.922">
  <path id="Path_280" data-name="Path 280" d="M880.345-122.917a5.994,5.994,0,0,0-.231-2.594,5.055,5.055,0,0,0-1.176-1.9,7.807,7.807,0,0,0-1.9-1.394,24.2,24.2,0,0,0-2.362-1.1,22.007,22.007,0,0,1-2.933-1.406,10.2,10.2,0,0,1-2.373-1.856,7.341,7.341,0,0,1-1.528-2.472,7.445,7.445,0,0,1-.373-3.252,8.873,8.873,0,0,1,.989-3.505,8.811,8.811,0,0,1,2.175-2.681,9.771,9.771,0,0,1,3.054-1.7,10.246,10.246,0,0,1,3.6-.549,7.961,7.961,0,0,1,3.526.835,7.4,7.4,0,0,1,2.527,2.11,8.272,8.272,0,0,1,1.428,3.032,11.07,11.07,0,0,1,.275,3.6h-2.505a9.372,9.372,0,0,0-.121-2.691,6.21,6.21,0,0,0-.912-2.274,4.923,4.923,0,0,0-1.747-1.593,5.676,5.676,0,0,0-2.625-.649,7.989,7.989,0,0,0-2.626.385,6.657,6.657,0,0,0-2.2,1.2,6.527,6.527,0,0,0-1.571,1.913,6.691,6.691,0,0,0-.769,2.526,4.826,4.826,0,0,0,.275,2.417,5.285,5.285,0,0,0,1.241,1.812,8.376,8.376,0,0,0,1.889,1.352,20.186,20.186,0,0,0,2.22,1.011,20.658,20.658,0,0,1,3.043,1.461,9.817,9.817,0,0,1,2.384,1.944,7.62,7.62,0,0,1,1.494,2.594,8.322,8.322,0,0,1,.352,3.383,8.943,8.943,0,0,1-1.011,3.592,8.847,8.847,0,0,1-2.219,2.7,9.743,9.743,0,0,1-3.121,1.692,10.848,10.848,0,0,1-3.691.538,9.433,9.433,0,0,1-3.735-.791,8.031,8.031,0,0,1-2.769-2.022,8.019,8.019,0,0,1-1.648-3.009,9.967,9.967,0,0,1-.351-3.78h2.483a8.493,8.493,0,0,0,.208,2.868,5.965,5.965,0,0,0,1.121,2.274,5.463,5.463,0,0,0,1.988,1.527,6.908,6.908,0,0,0,2.835.582,7.715,7.715,0,0,0,2.681-.374,7.112,7.112,0,0,0,2.263-1.208,6.592,6.592,0,0,0,1.636-1.944A6.69,6.69,0,0,0,880.345-122.917Z" transform="translate(-864.283 147.334)"/>
  <path id="Path_281" data-name="Path 281" d="M891.858-127.906,889.595-114.9h-2.5l5.559-31.992,8.877.021a8.3,8.3,0,0,1,3.516.814,6.524,6.524,0,0,1,2.384,2.011,7.739,7.739,0,0,1,1.274,2.955,11.912,11.912,0,0,1,.187,3.6,12.316,12.316,0,0,1-1,3.977,9.457,9.457,0,0,1-2.132,3.033,9.153,9.153,0,0,1-3.142,1.922,11.549,11.549,0,0,1-4.032.67Zm.4-2.351,6.438.045a8.033,8.033,0,0,0,3-.539,7.1,7.1,0,0,0,2.34-1.495,7.38,7.38,0,0,0,1.593-2.285,9.541,9.541,0,0,0,.78-2.933,9.605,9.605,0,0,0-.044-2.6,5.952,5.952,0,0,0-.791-2.208,4.5,4.5,0,0,0-1.615-1.559,5.42,5.42,0,0,0-2.516-.661l-6.7-.021Z" transform="translate(-864.283 147.334)"/>
  <path id="Path_282" data-name="Path 282" d="M932.376-127.445a28.062,28.062,0,0,1-.725,3.264,18.764,18.764,0,0,1-1.176,3.076,15.3,15.3,0,0,1-1.681,2.7,10.427,10.427,0,0,1-2.23,2.132,10.025,10.025,0,0,1-2.813,1.373,10.673,10.673,0,0,1-3.438.44,8.762,8.762,0,0,1-3.153-.605,7.319,7.319,0,0,1-2.318-1.494,7.628,7.628,0,0,1-1.571-2.175,11.358,11.358,0,0,1-.9-2.67,15.654,15.654,0,0,1-.319-2.967,21.288,21.288,0,0,1,.176-3.053l1.1-6.9a24.228,24.228,0,0,1,1.252-4.823,15.2,15.2,0,0,1,2.351-4.208,11.067,11.067,0,0,1,3.582-2.943,9.982,9.982,0,0,1,4.922-1.034,8.752,8.752,0,0,1,3.152.6,7.194,7.194,0,0,1,2.308,1.494,7.5,7.5,0,0,1,1.549,2.2,12.136,12.136,0,0,1,.89,2.692,15.582,15.582,0,0,1,.318,2.966,21.3,21.3,0,0,1-.175,3.054Zm-1.406-6.965a22.563,22.563,0,0,0,.187-2.362,14.892,14.892,0,0,0-.121-2.362,10.168,10.168,0,0,0-.538-2.175,5.949,5.949,0,0,0-1.066-1.823,4.937,4.937,0,0,0-1.7-1.264,6.34,6.34,0,0,0-2.472-.517,8.168,8.168,0,0,0-2.747.352,7.259,7.259,0,0,0-2.208,1.143,8.851,8.851,0,0,0-1.736,1.768,12.048,12.048,0,0,0-1.3,2.209,17.222,17.222,0,0,0-.9,2.483,21.619,21.619,0,0,0-.56,2.592l-1.077,6.966a22.106,22.106,0,0,0-.187,2.361,14.042,14.042,0,0,0,.132,2.373,10.746,10.746,0,0,0,.549,2.2,5.793,5.793,0,0,0,1.077,1.835,5.184,5.184,0,0,0,1.714,1.274,6.138,6.138,0,0,0,2.45.527,7.61,7.61,0,0,0,3.933-.835,8.429,8.429,0,0,0,2.768-2.416,12.352,12.352,0,0,0,1.769-3.45,22.387,22.387,0,0,0,.934-3.889Z" transform="translate(-864.283 147.334)"/>
  <path id="Path_283" data-name="Path 283" d="M948.855-128.213H941.6L939.3-114.9h-2.526l5.559-31.992,8.349.021a8.638,8.638,0,0,1,3.527.791,6.794,6.794,0,0,1,2.428,1.946,7.325,7.325,0,0,1,1.329,2.888,11.016,11.016,0,0,1,.187,3.6,11.436,11.436,0,0,1-.681,2.967,9.914,9.914,0,0,1-1.407,2.527,10.212,10.212,0,0,1-2.076,2.021,10.44,10.44,0,0,1-2.67,1.407l4.131,13.535-.022.285h-2.68ZM942-130.542l6.35.043a7.176,7.176,0,0,0,2.813-.582,6.822,6.822,0,0,0,2.208-1.538,8.03,8.03,0,0,0,1.516-2.274,9.445,9.445,0,0,0,.758-2.769,8.9,8.9,0,0,0-.066-2.592,5.7,5.7,0,0,0-.824-2.132,4.448,4.448,0,0,0-1.637-1.483,5.745,5.745,0,0,0-2.505-.627l-6.174-.021Z" transform="translate(-864.283 147.334)"/>
  <path id="Path_284" data-name="Path 284" d="M982.232-144.517h-8.811L968.279-114.9h-2.526l5.142-29.619h-8.812l.439-2.373h20.127Z" transform="translate(-864.283 147.334)"/>
  <path id="Path_285" data-name="Path 285" d="M880.345-87.917a5.994,5.994,0,0,0-.231-2.594,5.055,5.055,0,0,0-1.176-1.9,7.807,7.807,0,0,0-1.9-1.394,24.2,24.2,0,0,0-2.362-1.1,22.007,22.007,0,0,1-2.933-1.406,10.2,10.2,0,0,1-2.373-1.856,7.341,7.341,0,0,1-1.528-2.472,7.445,7.445,0,0,1-.373-3.252,8.873,8.873,0,0,1,.989-3.505,8.811,8.811,0,0,1,2.175-2.681,9.771,9.771,0,0,1,3.054-1.7,10.246,10.246,0,0,1,3.6-.549,7.961,7.961,0,0,1,3.526.835,7.4,7.4,0,0,1,2.527,2.11,8.272,8.272,0,0,1,1.428,3.032,11.07,11.07,0,0,1,.275,3.6h-2.505a9.373,9.373,0,0,0-.121-2.691,6.21,6.21,0,0,0-.912-2.274,4.923,4.923,0,0,0-1.747-1.593,5.676,5.676,0,0,0-2.625-.649,7.989,7.989,0,0,0-2.626.385,6.657,6.657,0,0,0-2.2,1.2,6.527,6.527,0,0,0-1.571,1.913,6.691,6.691,0,0,0-.769,2.526,4.826,4.826,0,0,0,.275,2.417,5.285,5.285,0,0,0,1.241,1.812,8.375,8.375,0,0,0,1.889,1.352,20.185,20.185,0,0,0,2.22,1.011,20.661,20.661,0,0,1,3.043,1.461,9.817,9.817,0,0,1,2.384,1.944,7.62,7.62,0,0,1,1.494,2.594,8.322,8.322,0,0,1,.352,3.383,8.943,8.943,0,0,1-1.011,3.592,8.847,8.847,0,0,1-2.219,2.7,9.743,9.743,0,0,1-3.121,1.692,10.848,10.848,0,0,1-3.691.538,9.433,9.433,0,0,1-3.735-.791,8.031,8.031,0,0,1-2.769-2.022,8.019,8.019,0,0,1-1.648-3.009,9.967,9.967,0,0,1-.351-3.78h2.483a8.493,8.493,0,0,0,.208,2.868,5.965,5.965,0,0,0,1.121,2.274,5.463,5.463,0,0,0,1.988,1.527,6.908,6.908,0,0,0,2.835.582,7.715,7.715,0,0,0,2.681-.374,7.112,7.112,0,0,0,2.263-1.208,6.592,6.592,0,0,0,1.636-1.944A6.69,6.69,0,0,0,880.345-87.917Z" transform="translate(-864.283 147.334)"/>
  <path id="Path_286" data-name="Path 286" d="M910.052-109.517h-8.811L896.1-79.9h-2.527l5.142-29.619H889.9l.439-2.373h20.127Z" transform="translate(-864.283 147.334)"/>
  <path id="Path_287" data-name="Path 287" d="M922.093-93.213h-7.251L912.535-79.9h-2.527l5.559-31.992,8.35.021a8.633,8.633,0,0,1,3.526.791,6.794,6.794,0,0,1,2.428,1.946,7.34,7.34,0,0,1,1.33,2.888,11.016,11.016,0,0,1,.186,3.6,11.357,11.357,0,0,1-.681,2.967,9.911,9.911,0,0,1-1.406,2.527,10.242,10.242,0,0,1-2.077,2.021,10.434,10.434,0,0,1-2.669,1.407l4.131,13.535-.022.285h-2.681Zm-6.856-2.329,6.35.043a7.172,7.172,0,0,0,2.813-.582,6.811,6.811,0,0,0,2.208-1.538,8.053,8.053,0,0,0,1.517-2.274,9.474,9.474,0,0,0,.757-2.769,8.9,8.9,0,0,0-.066-2.592,5.712,5.712,0,0,0-.823-2.132,4.459,4.459,0,0,0-1.638-1.483,5.744,5.744,0,0,0-2.5-.627l-6.175-.021Z" transform="translate(-864.283 147.334)"/>
  <path id="Path_288" data-name="Path 288" d="M950-88.841h-11.58L934.2-79.9h-2.681l15.447-31.992h2.329L953.624-79.9h-2.505Zm-10.481-2.351H949.69l-2.109-17.051Z" transform="translate(-864.283 147.334)"/>
  <path id="Path_289" data-name="Path 289" d="M977.947-79.9h-2.526L978.1-95.212H963.577L960.918-79.9h-2.5l5.559-31.992h2.505l-2.505,14.348H978.5l2.482-14.348h2.528Z" transform="translate(-864.283 147.334)"/>
  <path id="Path_290" data-name="Path 290" d="M1006.995-92.445a28.071,28.071,0,0,1-.724,3.264,18.852,18.852,0,0,1-1.176,3.076,15.361,15.361,0,0,1-1.681,2.7,10.449,10.449,0,0,1-2.23,2.132,10.051,10.051,0,0,1-2.813,1.373,10.677,10.677,0,0,1-3.438.44,8.767,8.767,0,0,1-3.154-.605,7.33,7.33,0,0,1-2.318-1.494,7.625,7.625,0,0,1-1.57-2.175,11.315,11.315,0,0,1-.9-2.67,15.735,15.735,0,0,1-.318-2.967,21.157,21.157,0,0,1,.176-3.053l1.1-6.9a24.224,24.224,0,0,1,1.252-4.823,15.177,15.177,0,0,1,2.352-4.208,11.063,11.063,0,0,1,3.581-2.943,9.982,9.982,0,0,1,4.922-1.034,8.757,8.757,0,0,1,3.153.605,7.2,7.2,0,0,1,2.308,1.494,7.519,7.519,0,0,1,1.549,2.2,12.081,12.081,0,0,1,.889,2.692,15.666,15.666,0,0,1,.319,2.966,21.3,21.3,0,0,1-.176,3.054Zm-1.406-6.965a22.3,22.3,0,0,0,.187-2.362,14.664,14.664,0,0,0-.121-2.362,10.053,10.053,0,0,0-.538-2.175,5.95,5.95,0,0,0-1.066-1.823,4.944,4.944,0,0,0-1.7-1.264,6.345,6.345,0,0,0-2.473-.517,8.158,8.158,0,0,0-2.746.352,7.248,7.248,0,0,0-2.208,1.143,8.823,8.823,0,0,0-1.736,1.768,12.052,12.052,0,0,0-1.3,2.209,17.11,17.11,0,0,0-.9,2.483,22.03,22.03,0,0,0-.56,2.592L989.352-92.4a22.106,22.106,0,0,0-.187,2.361,14.042,14.042,0,0,0,.132,2.373,10.62,10.62,0,0,0,.549,2.2,5.793,5.793,0,0,0,1.077,1.835,5.184,5.184,0,0,0,1.714,1.274,6.129,6.129,0,0,0,2.449.527,7.613,7.613,0,0,0,3.934-.835,8.439,8.439,0,0,0,2.768-2.416,12.406,12.406,0,0,0,1.769-3.45,22.484,22.484,0,0,0,.933-3.889Z" transform="translate(-864.283 147.334)"/>
  <path id="Path_291" data-name="Path 291" d="M1019.85-83.9v.374l.131-.374,12.481-27.993h2.834L1020.574-79.9h-2.35l-4.681-31.992h2.549Z" transform="translate(-864.283 147.334)"/>
  <path id="Path_292" data-name="Path 292" d="M1043.668-95.63l-4.439,4.373L1037.273-79.9h-2.5l5.559-31.992h2.505l-2.944,16.831,4.152-4.351,11.646-12.48h3.3l-13.424,14.37,8.525,17.622h-2.835Z" transform="translate(-864.283 147.334)"/>
  <path id="Path_293" data-name="Path 293" d="M1062.74-79.9h-3.933l5.559-31.992h3.933Z" transform="translate(-864.283 147.334)"/>
  <path id="Path_294" data-name="Path 294" d="M1057.129-71.963a2.488,2.488,0,0,1,.682-1.791,2.467,2.467,0,0,1,1.757-.758,2.379,2.379,0,0,1,1.78.659,2.272,2.272,0,0,1,.681,1.758,2.376,2.376,0,0,1-.725,1.747,2.622,2.622,0,0,1-1.758.714,2.524,2.524,0,0,1-.978-.143,2.142,2.142,0,0,1-.768-.473,2.1,2.1,0,0,1-.495-.747A2.581,2.581,0,0,1,1057.129-71.963Z" transform="translate(-864.283 147.334)"/>
  <path id="Path_295" data-name="Path 295" d="M1080.332-82.839h-5.516L1072.554-69.9h-3.934l5.537-31.992,8.46.021a9.681,9.681,0,0,1,3.692.77,6.733,6.733,0,0,1,2.548,1.944,7.416,7.416,0,0,1,1.395,2.945,11.475,11.475,0,0,1,.209,3.768,10.37,10.37,0,0,1-1.911,5.274,10.848,10.848,0,0,1-4.417,3.471l3.714,13.514-.023.285H1083.6Zm-4.922-3.451,4.548.044a6.773,6.773,0,0,0,2.505-.494,6.2,6.2,0,0,0,1.988-1.3,6.538,6.538,0,0,0,1.374-1.955,7.961,7.961,0,0,0,.681-2.472,10.1,10.1,0,0,0,.022-2.208,4.709,4.709,0,0,0-.571-1.857,3.527,3.527,0,0,0-1.3-1.307,4.633,4.633,0,0,0-2.153-.56l-4.987-.022Z" transform="translate(-864.283 147.334)" fill="#f869ed"/>
  <path id="Path_296" data-name="Path 296" d="M1116.081-101.89l-3.845,22.521a13.959,13.959,0,0,1-1.186,4.1,10.416,10.416,0,0,1-2.285,3.175,9.7,9.7,0,0,1-3.3,2.021,11.378,11.378,0,0,1-4.219.659,9.625,9.625,0,0,1-3.879-.8,7.1,7.1,0,0,1-2.658-2.066,7.621,7.621,0,0,1-1.417-3.109,12.071,12.071,0,0,1-.154-3.955l3.823-22.544h3.911l-3.823,22.566a11.178,11.178,0,0,0-.033,2.472,5.026,5.026,0,0,0,.626,2.021,3.707,3.707,0,0,0,1.428,1.384,5.206,5.206,0,0,0,2.4.561,6.863,6.863,0,0,0,2.746-.385,5.5,5.5,0,0,0,2.021-1.307,6.529,6.529,0,0,0,1.341-2.066,11.217,11.217,0,0,0,.725-2.68l3.823-22.566Z" transform="translate(-864.283 147.334)" fill="#f869ed"/>
</svg>
