<svg xmlns="http://www.w3.org/2000/svg" width="998" height="356"><g fill="none" stroke-dasharray="5 5"><path d="M8 0h982a8 8 0 018 8v340a8 8 0 01-8 8H8a8 8 0 01-8-8V8a8 8 0 018-8z"/><path d="M8 0h5v1H8V0zm10 0h5v1h-5V0zm10 0h5v1h-5V0zm10 0h5v1h-5V0zm10 0h5v1h-5V0zm10 0h5v1h-5V0zm10 0h5v1h-5V0zm10 0h5v1h-5V0zm10 0h5v1h-5V0zm10 0h5v1h-5V0zm10 0h5v1h-5V0zm10 0h5v1h-5V0zm10 0h5v1h-5V0zm10 0h5v1h-5V0zm10 0h5v1h-5V0zm10 0h5v1h-5V0zm10 0h5v1h-5V0zm10 0h5v1h-5V0zm10 0h5v1h-5V0zm10 0h5v1h-5V0zm10 0h5v1h-5V0zm10 0h5v1h-5V0zm10 0h5v1h-5V0zm10 0h5v1h-5V0zm10 0h5v1h-5V0zm10 0h5v1h-5V0zm10 0h5v1h-5V0zm10 0h5v1h-5V0zm10 0h5v1h-5V0zm10 0h5v1h-5V0zm10 0h5v1h-5V0zm10 0h5v1h-5V0zm10 0h5v1h-5V0zm10 0h5v1h-5V0zm10 0h5v1h-5V0zm10 0h5v1h-5V0zm10 0h5v1h-5V0zm10 0h5v1h-5V0zm10 0h5v1h-5V0zm10 0h5v1h-5V0zm10 0h5v1h-5V0zm10 0h5v1h-5V0zm10 0h5v1h-5V0zm10 0h5v1h-5V0zm10 0h5v1h-5V0zm10 0h5v1h-5V0zm10 0h5v1h-5V0zm10 0h5v1h-5V0zm10 0h5v1h-5V0zm10 0h5v1h-5V0zm10 0h5v1h-5V0zm10 0h5v1h-5V0zm10 0h5v1h-5V0zm10 0h5v1h-5V0zm10 0h5v1h-5V0zm10 0h5v1h-5V0zm10 0h5v1h-5V0zm10 0h5v1h-5V0zm10 0h5v1h-5V0zm10 0h5v1h-5V0zm10 0h5v1h-5V0zm10 0h5v1h-5V0zm10 0h5v1h-5V0zm10 0h5v1h-5V0zm10 0h5v1h-5V0zm10 0h5v1h-5V0zm10 0h5v1h-5V0zm10 0h5v1h-5V0zm10 0h5v1h-5V0zm10 0h5v1h-5V0zm10 0h5v1h-5V0zm10 0h5v1h-5V0zm10 0h5v1h-5V0zm10 0h5v1h-5V0zm10 0h5v1h-5V0zm10 0h5v1h-5V0zm10 0h5v1h-5V0zm10 0h5v1h-5V0zm10 0h5v1h-5V0zm10 0h5v1h-5V0zm10 0h5v1h-5V0zm10 0h5v1h-5V0zm10 0h5v1h-5V0zm10 0h5v1h-5V0zm10 0h5v1h-5V0zm10 0h5v1h-5V0zm10 0h5v1h-5V0zm10 0h5v1h-5V0zm10 0h5v1h-5V0zm10 0h5v1h-5V0zm10 0h5v1h-5V0zm10 0h5v1h-5V0zm10 0h5v1h-5V0zm10 0h5v1h-5V0zm10 0h5v1h-5V0zm10 0h5v1h-5V0zm10 0h5v1h-5V0zm10 0h5v1h-5V0zm10 0h2.112l.013.001h.051l.01.001a2.099 2.099 0 01.04.001h.024l.012.001h.013l.012.001h.013l.012.001a2.233 2.233 0 01.074.003l.024.001h.01l.015.002h.011l.014.001h.011l.014.001.011.001.013.001h.012l.013.002h.012l.013.001.012.001.012.001h.013l.011.002h.014l.01.002h.014l.01.001.015.002h.01l.014.002h.01l.015.002h.006l.061.006h.005l.018.002.006.001.017.002h.007l.016.002.008.001.016.002h.008a2.802 2.802 0 01.04.005l.009.001.015.002.009.001.016.002h.007l.017.003h.007l.017.003h.006l.018.003h.005c.06.009.121.017.181.027h.002l.021.003h.003l.02.004h.004l.02.004h.003l.02.004h.003l.021.004h.002l.022.004c.539.093 1.06.24 1.556.436l-.367.93A6.966 6.966 0 00990 1h-2V0zm8.732 3.676v.001a8.349 8.349 0 01.129.206l.035.06.026.044v.001l.035.06v.001l.026.044v.001l.033.06.002.002a7.889 7.889 0 01.145.277 7.853 7.853 0 01.304.69l.019.049a7.982 7.982 0 01.066.183l.023.066v.001a7.561 7.561 0 01.06.184l.001.001.015.049.001.003.005.015.01.033v.002l.005.015v.003l.014.047.001.004.005.015v.002l.014.048.001.005.013.047a1.436 1.436 0 00.005.018v.003a5.99 5.99 0 01.018.066v.002l.01.033a1.48 1.48 0 00.016.067l.001.004.004.015v.003l.008.03v.003l.004.015.001.005.011.047v.004l.004.014.001.006.006.026.002.006.002.013.002.006.003.015v.001l.007.03.001.006.003.014.001.005.01.046v.006l.004.014v.005l.006.027.001.005a1.06 1.06 0 01.014.073l.002.012.002.01a2.668 2.668 0 01.009.05l.002.012.002.012.003.018.002.01.002.012.002.01.002.012.002.018.002.01.002.011a.692.692 0 01.004.024l.002.017.002.01.002.012a.518.518 0 01.006.041l.001.009.002.013.001.01.002.013.002.014.002.014.002.01.001.013.002.01.002.02.001.007.002.014.001.01.002.014.001.008.003.02v.009l.002.014.001.009.003.019v.008l.002.015.001.009.002.015v.008l.003.02v.01l.002.012.001.01.002.016v.01l.002.017.001.009.002.014v.008l.002.021v.007l.002.016v.008l.002.018v.005l.002.021a.34.34 0 00.002.023v.008l.003.022v.004l.001.018v.008l.002.017v.006l.002.022v.007l.001.017v.006l.002.022v.004l.001.02v.007l.001.017v.006l.002.022v.023l.001.008.001.02v.003l.001.022v.025l.001.005v.023l.001.005v.025l.001.02v.026l.001.006v.024a2.959 2.959 0 01.001.026v.02a.25.25 0 000 .007v.02a.1.1 0 010 .003v.054L998 8v.432h-1V8a6.973 6.973 0 00-1.109-3.782l.841-.542zm.268 9.756h1v5h-1v-5zm0 10h1v5h-1v-5zm0 10h1v5h-1v-5zm0 10h1v5h-1v-5zm0 10h1v5h-1v-5zm0 10h1v5h-1v-5zm0 10h1v5h-1v-5zm0 10h1v5h-1v-5zm0 10h1v5h-1v-5zm0 10h1v5h-1v-5zm0 10h1v5h-1v-5zm0 10h1v5h-1v-5zm0 10h1v5h-1v-5zm0 10h1v5h-1v-5zm0 10h1v5h-1v-5zm0 10h1v5h-1v-5zm0 10h1v5h-1v-5zm0 10h1v5h-1v-5zm0 10h1v5h-1v-5zm0 10h1v5h-1v-5zm0 10h1v5h-1v-5zm0 10h1v5h-1v-5zm0 10h1v5h-1v-5zm0 10h1v5h-1v-5zm0 10h1v5h-1v-5zm0 10h1v5h-1v-5zm0 10h1v5h-1v-5zm0 10h1v5h-1v-5zm0 10h1v5h-1v-5zm0 10h1v5h-1v-5zm0 10h1v5h-1v-5zm0 10h1v5h-1v-5zm0 10h1v5h-1v-5zm0 10h1v4.682l-.001.02v.031l-.001.024v.002c-.002.08-.005.16-.01.241l-.998-.053c.007-.125.01-.253.01-.379v-4.568zm-1.552 8.963l.778.629-.06.074-.002.002-.01.013-.004.004a4.606 4.606 0 01-.03.036l-.006.006-.008.01-.006.007-.007.009a.962.962 0 00-.008.009l-.006.007-.012.013c0 .002-.002.003-.003.004l-.014.016a.698.698 0 01-.015.018l-.003.004a5.697 5.697 0 01-.046.051l-.001.002-.014.016-.002.002-.014.015-.002.002a7.616 7.616 0 01-.063.07c-.25.271-.517.524-.8.758l-.002.002-.055.045-.018.014-.002.002-.016.013-.002.001-.037.03-.017.013-.004.003-.015.012-.003.002a6.53 6.53 0 01-.036.029h-.002a.065.065 0 01-.016.013l-.005.004a4.138 4.138 0 01-.032.025l-.004.002-.018.014a.224.224 0 01-.017.013l-.007.005-.011.009-.006.004-.012.009-.007.005-.017.012-.005.004-.012.009-.008.006-.01.007-.008.006a1.32 1.32 0 00-.01.007l-.008.006-.011.008-.014.01-.009.006a2.303 2.303 0 00-.01.007l-.007.005-.011.008-.007.004a2.476 2.476 0 01-.01.008l-.006.004a7.518 7.518 0 01-.045.031l-.013.009-.004.003-.014.01-.063.042-.002.001a7.974 7.974 0 01-1.613.831l-.002.001a3.532 3.532 0 01-.036.014h-.002a10.398 10.398 0 01-.056.021l-.012.004a1.267 1.267 0 01-.01.004l-.01.004-.01.003-.011.004-.02.007a1.03 1.03 0 00-.009.003l-.013.005-.008.003-.013.004-.008.003-.016.005-.005.002a3.637 3.637 0 01-.022.008l-.022.007-.004.001-.019.007h-.003c-.134.045-.27.086-.407.124l-.264-.965a6.96 6.96 0 003.601-2.359zM982.136 355h5v1h-5v-1zm-10 0h5v1h-5v-1zm-10 0h5v1h-5v-1zm-10 0h5v1h-5v-1zm-10 0h5v1h-5v-1zm-10 0h5v1h-5v-1zm-10 0h5v1h-5v-1zm-10 0h5v1h-5v-1zm-10 0h5v1h-5v-1zm-10 0h5v1h-5v-1zm-10 0h5v1h-5v-1zm-10 0h5v1h-5v-1zm-10 0h5v1h-5v-1zm-10 0h5v1h-5v-1zm-10 0h5v1h-5v-1zm-10 0h5v1h-5v-1zm-10 0h5v1h-5v-1zm-10 0h5v1h-5v-1zm-10 0h5v1h-5v-1zm-10 0h5v1h-5v-1zm-10 0h5v1h-5v-1zm-10 0h5v1h-5v-1zm-10 0h5v1h-5v-1zm-10 0h5v1h-5v-1zm-10 0h5v1h-5v-1zm-10 0h5v1h-5v-1zm-10 0h5v1h-5v-1zm-10 0h5v1h-5v-1zm-10 0h5v1h-5v-1zm-10 0h5v1h-5v-1zm-10 0h5v1h-5v-1zm-10 0h5v1h-5v-1zm-10 0h5v1h-5v-1zm-10 0h5v1h-5v-1zm-10 0h5v1h-5v-1zm-10 0h5v1h-5v-1zm-10 0h5v1h-5v-1zm-10 0h5v1h-5v-1zm-10 0h5v1h-5v-1zm-10 0h5v1h-5v-1zm-10 0h5v1h-5v-1zm-10 0h5v1h-5v-1zm-10 0h5v1h-5v-1zm-10 0h5v1h-5v-1zm-10 0h5v1h-5v-1zm-10 0h5v1h-5v-1zm-10 0h5v1h-5v-1zm-10 0h5v1h-5v-1zm-10 0h5v1h-5v-1zm-10 0h5v1h-5v-1zm-10 0h5v1h-5v-1zm-10 0h5v1h-5v-1zm-10 0h5v1h-5v-1zm-10 0h5v1h-5v-1zm-10 0h5v1h-5v-1zm-10 0h5v1h-5v-1zm-10 0h5v1h-5v-1zm-10 0h5v1h-5v-1zm-10 0h5v1h-5v-1zm-10 0h5v1h-5v-1zm-10 0h5v1h-5v-1zm-10 0h5v1h-5v-1zm-10 0h5v1h-5v-1zm-10 0h5v1h-5v-1zm-10 0h5v1h-5v-1zm-10 0h5v1h-5v-1zm-10 0h5v1h-5v-1zm-10 0h5v1h-5v-1zm-10 0h5v1h-5v-1zm-10 0h5v1h-5v-1zm-10 0h5v1h-5v-1zm-10 0h5v1h-5v-1zm-10 0h5v1h-5v-1zm-10 0h5v1h-5v-1zm-10 0h5v1h-5v-1zm-10 0h5v1h-5v-1zm-10 0h5v1h-5v-1zm-10 0h5v1h-5v-1zm-10 0h5v1h-5v-1zm-10 0h5v1h-5v-1zm-10 0h5v1h-5v-1zm-10 0h5v1h-5v-1zm-10 0h5v1h-5v-1zm-10 0h5v1h-5v-1zm-10 0h5v1h-5v-1zm-10 0h5v1h-5v-1zm-10 0h5v1h-5v-1zm-10 0h5v1h-5v-1zm-10 0h5v1h-5v-1zm-10 0h5v1h-5v-1zm-10 0h5v1h-5v-1zm-10 0h5v1h-5v-1zm-10 0h5v1h-5v-1zm-10 0h5v1h-5v-1zm-10 0h5v1h-5v-1zm-10 0h5v1h-5v-1zm-10 0h5v1h-5v-1zm-10 0h5v1h-5v-1zm-8.82-1.797a6.94 6.94 0 003.928 1.757l-.107.994-.016-.002h-.007l-.015-.002h-.006a7.507 7.507 0 01-.074-.01h-.004l-.018-.002h-.002a7.95 7.95 0 01-1.527-.346l-.001-.001-.018-.006a7.82 7.82 0 01-.073-.025l-.002-.001-.016-.006a7.263 7.263 0 01-.055-.02H5.3l-.015-.005-.006-.002-.014-.005-.005-.002a7.874 7.874 0 01-.047-.018l-.006-.002-.014-.005-.006-.002-.013-.005-.007-.003a2.493 2.493 0 01-.014-.005l-.03-.011-.008-.003-.012-.005-.008-.003a2.431 2.431 0 00-.02-.008l-.012-.005-.01-.004-.018-.007-.011-.005c-.004 0-.007-.002-.01-.004l-.011-.004-.01-.004-.011-.005-.01-.003-.019-.008a.294.294 0 01-.006-.003l-.014-.006c-.003 0-.005-.002-.008-.003l-.013-.005-.008-.004-.013-.005-.008-.004-.02-.008-.002-.001a2.556 2.556 0 01-.019-.008l-.006-.002c-.004-.003-.01-.005-.015-.007l-.006-.003-.016-.007-.005-.002a6.42 6.42 0 01-.041-.018l-.004-.002-.018-.008-.004-.001-.02-.01a8.969 8.969 0 01-.044-.02h-.002l-.02-.01H4.64l-.022-.01a7.04 7.04 0 01-.043-.02v-.001a6.459 6.459 0 01-.022-.01h-.001a8.011 8.011 0 01-1.906-1.276l.67-.743zM0 344.703h1V348c0 .5.053.997.157 1.48l-.978.211a7.986 7.986 0 01-.132-.824l-.003-.022v-.003l-.002-.021-.001-.006-.002-.02v-.005l-.002-.02-.001-.006-.002-.02v-.006l-.002-.018v-.008l-.002-.018v-.008l-.003-.018v-.007l-.002-.019v-.007l-.002-.018v-.008l-.002-.019v-.004a7.113 7.113 0 01-.005-.072l-.001-.02v-.006l-.001-.017v-.01l-.002-.015v-.01l-.001-.015a.797.797 0 00-.001-.026l-.001-.012v-.014l-.001-.013v-.013l-.001-.013v-.013l-.001-.014v-.012l-.001-.014a.89.89 0 00-.001-.026v-.026l-.001-.013v-.027l-.001-.013v-.04L0 348.118v-3.415zm0-10h1v5H0v-5zm0-10h1v5H0v-5zm0-10h1v5H0v-5zm0-10h1v5H0v-5zm0-10h1v5H0v-5zm0-10h1v5H0v-5zm0-10h1v5H0v-5zm0-10h1v5H0v-5zm0-10h1v5H0v-5zm0-10h1v5H0v-5zm0-10h1v5H0v-5zm0-10h1v5H0v-5zm0-10h1v5H0v-5zm0-10h1v5H0v-5zm0-10h1v5H0v-5zm0-10h1v5H0v-5zm0-10h1v5H0v-5zm0-10h1v5H0v-5zm0-10h1v5H0v-5zm0-10h1v5H0v-5zm0-10h1v5H0v-5zm0-10h1v5H0v-5zm0-10h1v5H0v-5zm0-10h1v5H0v-5zm0-10h1v5H0v-5zm0-10h1v5H0v-5zm0-10h1v5H0v-5zm0-10h1v5H0v-5zm0-10h1v5H0v-5zm0-10h1v5H0v-5zm0-10h1v5H0v-5zm0-10h1v5H0v-5zm0-10h1v5H0v-5zm.668-9.907l.916.4A6.949 6.949 0 001 8v1.703H0v-1.82l.001-.014V7.83l.001-.014V7.79l.001-.012v-.026l.001-.014v-.012l.001-.014V7.7l.001-.014v-.013l.001-.013v-.012l.001-.014a.85.85 0 01.001-.026l.001-.013v-.013l.001-.013.001-.013v-.012l.002-.015v-.012l.001-.013v-.012l.002-.014v-.012l.001-.015.001-.011.001-.015.001-.01.001-.016.001-.01.001-.016.001-.01.001-.017a.49.49 0 01.001-.009L.03 7.32v-.009l.002-.018v-.007l.002-.02V7.26l.003-.022v-.004L.04 7.21l.01-.104v-.002l.003-.024v-.001l.003-.024a.17.17 0 01.001-.006l.002-.02.001-.006.003-.02v-.006l.003-.02V6.97l.003-.018.001-.008.002-.018.001-.007.003-.019v-.006l.004-.02v-.006l.003-.019.001-.007.003-.018v-.007l.004-.019v-.006l.004-.02v-.005l.004-.02v-.006l.004-.02v-.005l.004-.02V6.69l.003-.02v-.004l.004-.022.001-.003.004-.023v-.002l.005-.025a7.941 7.941 0 01.544-1.795zM8 0v1a6.991 6.991 0 00-3.562.972l-.51-.86A7.947 7.947 0 016.462.148c.074-.014.147-.028.221-.04L6.733.1l.025-.004.024-.004h.001l.049-.007.049-.007h.002A8.57 8.57 0 016.93.07h.002L6.98.065h.004A8.92 8.92 0 017.03.057h.003l.046-.006h.005l.045-.005h.005l.022-.003h.001L7.18.042 7.185.04l.021-.002h.002L7.23.037h.005c.007-.002.014-.002.022-.003h.001l.023-.002h.005L7.308.03l.024-.002h.005l.019-.002a.251.251 0 00.026-.003.358.358 0 01.026-.001h.003L7.434.02h.003L7.46.017h.003l.023-.002h.004l.02-.001h.004l.023-.002h.004l.02-.001h.004A5.593 5.593 0 017.592.01h.023a2.686 2.686 0 01.028-.002l.02-.001h.004L7.69.006h.004l.02-.001h.004a5.732 5.732 0 01.027-.001h.025l.023-.001h.023l.006-.001h.045L7.874 0H7.9a4.622 4.622 0 01.026 0H8z" fill="rgba(230,230,230,0.45)"/></g></svg>